<svg xmlns="http://www.w3.org/2000/svg" width="30.007" height="30" viewBox="0 0 30.007 30">
  <path id="Icon_awesome-instagram" data-name="Icon awesome-instagram" d="M15,9.546a7.692,7.692,0,1,0,7.692,7.692A7.679,7.679,0,0,0,15,9.546Zm0,12.692a5,5,0,1,1,5-5A5.01,5.01,0,0,1,15,22.238ZM24.8,9.231a1.794,1.794,0,1,1-1.794-1.794A1.79,1.79,0,0,1,24.8,9.231ZM29.9,11.052a8.878,8.878,0,0,0-2.423-6.286,8.937,8.937,0,0,0-6.286-2.423c-2.477-.141-9.9-.141-12.378,0A8.924,8.924,0,0,0,2.523,4.76,8.907,8.907,0,0,0,.1,11.046c-.141,2.477-.141,9.9,0,12.378a8.878,8.878,0,0,0,2.423,6.286,8.948,8.948,0,0,0,6.286,2.423c2.477.141,9.9.141,12.378,0a8.878,8.878,0,0,0,6.286-2.423A8.937,8.937,0,0,0,29.9,23.423c.141-2.477.141-9.894,0-12.371ZM26.7,26.081a5.063,5.063,0,0,1-2.852,2.852c-1.975.783-6.661.6-8.843.6s-6.875.174-8.843-.6a5.063,5.063,0,0,1-2.852-2.852c-.783-1.975-.6-6.661-.6-8.843s-.174-6.875.6-8.843A5.063,5.063,0,0,1,6.158,5.543c1.975-.783,6.661-.6,8.843-.6s6.875-.174,8.843.6A5.063,5.063,0,0,1,26.7,8.395c.783,1.975.6,6.661.6,8.843S27.479,24.113,26.7,26.081Z" transform="translate(0.005 -2.238)" fill="#fff"/>
</svg>
